{
  "accessors": [
    {
      "bufferView": 2,
      "componentType": 5126,
      "count": 5921,
      "max": [
        1,
        1.0000079870223999,
        1.023751974105835
      ],
      "min": [
        -1.5039370059967041,
        -1,
        -1
      ],
      "type": "VEC3"
    },
    {
      "bufferView": 2,
      "byteOffset": 71052,
      "componentType": 5126,
      "count": 5921,
      "max": [
        0.99991530179977417,
        1,
        1
      ],
      "min": [
        -1,
        -1,
        -1
      ],
      "type": "VEC3"
    },
    {
      "bufferView": 3,
      "componentType": 5126,
      "count": 5921,
      "max": [
        1,
        0.99999988079071045,
        0.99922102689743042,
        1
      ],
      "min": [
        -1,
        -1,
        -1,
        -1
      ],
      "type": "VEC4"
    },
    {
      "bufferView": 1,
      "componentType": 5126,
      "count": 5921,
      "max": [
        0.97089952230453491,
        0.97797632217407227
      ],
      "min": [
        0.021125610917806625,
        0.010575589723885059
      ],
      "type": "VEC2"
    },
    {
      "bufferView": 0,
      "componentType": 5125,
      "count": 6288,
      "max": [
        5920
      ],
      "min": [
        0
      ],
      "type": "SCALAR"
    }
  ],
  "asset": {
    "extras": {
      "author": "ra3id (https://sketchfab.com/ra3id)",
      "license": "CC-BY-4.0 (http://creativecommons.org/licenses/by/4.0/)",
      "source": "https://sketchfab.com/3d-models/refrigerator-grey-polished-metal-2071bda681b642218b6829b82e4fd93b",
      "title": "Refrigerator - Grey Polished Metal"
    },
    "generator": "Sketchfab-4.54.1",
    "version": "2.0"
  },
  "bufferViews": [
    {
      "buffer": 0,
      "byteLength": 25152,
      "byteOffset": 0,
      "name": "floatBufferViews",
      "target": 34963
    },
    {
      "buffer": 0,
      "byteLength": 47368,
      "byteOffset": 25152,
      "byteStride": 8,
      "name": "floatBufferViews",
      "target": 34962
    },
    {
      "buffer": 0,
      "byteLength": 142104,
      "byteOffset": 72520,
      "byteStride": 12,
      "name": "floatBufferViews",
      "target": 34962
    },
    {
      "buffer": 0,
      "byteLength": 94736,
      "byteOffset": 214624,
      "byteStride": 16,
      "name": "floatBufferViews",
      "target": 34962
    }
  ],
  "buffers": [
    {
      "byteLength": 309360,
      "uri": "scene2.bin"
    }
  ],
  "images": [
    {
      "uri": "textures/Material_metallicRoughness.png"
    },
    {
      "uri": "textures/Material_normal.png"
    },
    {
      "uri": "textures/Material_baseColor.png"
    }
  ],
  "materials": [
    {
      "doubleSided": true,
      "emissiveFactor": [
        0,
        0,
        0
      ],
      "name": "Material",
      "normalTexture": {
        "index": 1,
        "scale": 1,
        "texCoord": 0
      },
      "pbrMetallicRoughness": {
        "baseColorFactor": [
          1,
          1,
          1,
          1
        ],
        "baseColorTexture": {
          "index": 2,
          "texCoord": 0
        },
        "metallicFactor": 1,
        "metallicRoughnessTexture": {
          "index": 0,
          "texCoord": 0
        },
        "roughnessFactor": 1
      }
    }
  ],
  "meshes": [
    {
      "name": "Material-material",
      "primitives": [
        {
          "attributes": {
            "NORMAL": 1,
            "POSITION": 0,
            "TANGENT": 2,
            "TEXCOORD_0": 3
          },
          "indices": 4,
          "material": 0,
          "mode": 4
        }
      ]
    }
  ],
  "nodes": [
    {
      "children": [
        1
      ],
      "name": "RootNode (gltf orientation matrix)",
      "rotation": [
        -0.70710678118654746,
        -0,
        -0,
        0.70710678118654757
      ]
    },
    {
      "children": [
        2
      ],
      "name": "RootNode (model correction matrix)"
    },
    {
      "children": [
        3,
        5,
        7
      ],
      "name": "Collada visual scene group"
    },
    {
      "children": [
        4
      ],
      "matrix": [
        0.00056984500000000003,
        1.364358,
        9.7868999999999994e-13,
        0,
        -1.9777480000000001,
        0.00082603699999999995,
        -2.7705200000000001e-10,
        0,
        -5.5046400000000001e-10,
        -2.58883e-12,
        3.9295059999999999,
        0,
        0.002426386,
        0.25465209999999999,
        3.9358119999999999,
        1
      ],
      "name": "Cube"
    },
    {
      "mesh": 0,
      "name": "Material-material"
    },
    {
      "children": [
        6
      ],
      "matrix": [
        -0.29086459999999997,
        0.9551712,
        -0.055189059999999998,
        0,
        -0.77110080000000003,
        -0.19988339999999999,
        0.60452470000000003,
        0,
        0.56639320000000004,
        0.21839120000000001,
        0.7946723,
        0,
        4.0762450000000001,
        1.0054540000000001,
        5.9038620000000002,
        1
      ],
      "name": "Lamp"
    },
    {
      "name": "Lamp"
    },
    {
      "children": [
        8
      ],
      "matrix": [
        0.68592070000000005,
        0.72767630000000005,
        0,
        0,
        -0.32401350000000001,
        0.30542079999999999,
        0.89539559999999996,
        0,
        0.65155819999999998,
        -0.61417040000000001,
        0.44527139999999998,
        0,
        7.4811319999999997,
        -6.5076400000000003,
        5.3436649999999997,
        1
      ],
      "name": "Camera"
    },
    {
      "name": "Camera-camera"
    }
  ],
  "samplers": [
    {
      "magFilter": 9729,
      "minFilter": 9987,
      "wrapS": 10497,
      "wrapT": 10497
    }
  ],
  "scene": 0,
  "scenes": [
    {
      "name": "OSG_Scene",
      "nodes": [
        0
      ]
    }
  ],
  "textures": [
    {
      "sampler": 0,
      "source": 0
    },
    {
      "sampler": 0,
      "source": 1
    },
    {
      "sampler": 0,
      "source": 2
    }
  ]
}

